<!--?xml version="1.0" standalone="no"?-->
              <svg id="sw-js-blob-svg" viewBox="0 0 100 100" xmlns="http://www.w3.org/2000/svg" version="1.1">
                    <defs> 
                        <linearGradient id="sw-gradient" x1="0" x2="1" y1="1" y2="0">
                            <stop id="stop1" stop-color="rgba(21.508, 77.649, 205.231, 1)" offset="0%"></stop>
                            <stop id="stop2" stop-color="rgba(237.359, 248.992, 251.656, 1)" offset="100%"></stop>
                        </linearGradient>
                    </defs>
                <path fill="none" d="M23.1,-36C30.1,-35.9,36.2,-30.2,39.4,-23.2C42.6,-16.3,42.8,-8.2,40.5,-1.3C38.2,5.5,33.4,11,29.1,16C24.8,20.9,21,25.4,16.2,29C11.5,32.7,5.7,35.6,-0.9,37.3C-7.6,38.9,-15.2,39.3,-21.9,36.7C-28.5,34.1,-34.2,28.5,-35.7,21.9C-37.3,15.3,-34.8,7.7,-34.5,0.2C-34.2,-7.3,-36.1,-14.6,-34.3,-20.9C-32.5,-27.1,-27.1,-32.3,-20.7,-32.9C-14.4,-33.4,-7.2,-29.4,0.4,-30.1C8,-30.8,16,-36.2,23.1,-36Z" width="100%" height="100%" transform="translate(50 50)" stroke-width="1" style="transition: all 0.3s ease 0s;" stroke="url(#sw-gradient)"></path>
              </svg>