<svg id="visual" viewBox="0 0 900 600" width="900" height="600" xmlns="http://www.w3.org/2000/svg" xmlns:xlink="http://www.w3.org/1999/xlink" version="1.1"><path d="M825 600L815 588.8C805 577.7 785 555.3 785.3 533.2C785.7 511 806.3 489 800.3 466.8C794.3 444.7 761.7 422.3 748.7 400C735.7 377.7 742.3 355.3 756.3 333.2C770.3 311 791.7 289 797.5 266.8C803.3 244.7 793.7 222.3 780.7 200C767.7 177.7 751.3 155.3 752.3 133.2C753.3 111 771.7 89 783 66.8C794.3 44.7 798.7 22.3 800.8 11.2L803 0L900 0L900 11.2C900 22.3 900 44.7 900 66.8C900 89 900 111 900 133.2C900 155.3 900 177.7 900 200C900 222.3 900 244.7 900 266.8C900 289 900 311 900 333.2C900 355.3 900 377.7 900 400C900 422.3 900 444.7 900 466.8C900 489 900 511 900 533.2C900 555.3 900 577.7 900 588.8L900 600Z" fill="#52616B" stroke-linecap="round" stroke-linejoin="miter"></path></svg>