<svg xmlns="http://www.w3.org/2000/svg" version="1.1" xmlns:xlink="http://www.w3.org/1999/xlink" xmlns:svgjs="http://svgjs.dev/svgjs" width="2200" height="560" preserveAspectRatio="none" viewBox="0 0 2200 560"><g mask="url(&quot;#SvgjsMask1015&quot;)" fill="none"><path d="M 0,40 C 88,70 264,191.2 440,190 C 616,188.8 704,23 880,34 C 1056,45 1144,234.8 1320,245 C 1496,255.2 1584,104.6 1760,85 C 1936,65.4 2112,134.6 2200,147L2200 560L0 560z" fill="rgba(115, 117, 119, 1)"></path><path d="M 0,487 C 146.8,473.2 440.4,428.2 734,418 C 1027.6,407.8 1174.8,456.4 1468,436 C 1761.2,415.6 2053.6,340 2200,316L2200 560L0 560z" fill="rgba(36, 38, 39, 1)"></path></g><defs><mask id="SvgjsMask1015"><rect width="2200" height="560" fill="#ffffff"></rect></mask></defs></svg>