<svg id="visual" viewBox="0 0 900 600" width="900" height="600" xmlns="http://www.w3.org/2000/svg" xmlns:xlink="http://www.w3.org/1999/xlink" version="1.1"><path d="M77 0L87 11.2C97 22.3 117 44.7 116.7 66.8C116.3 89 95.7 111 101.7 133.2C107.7 155.3 140.3 177.7 153.3 200C166.3 222.3 159.7 244.7 145.7 266.8C131.7 289 110.3 311 104.5 333.2C98.7 355.3 108.3 377.7 121.3 400C134.3 422.3 150.7 444.7 149.7 466.8C148.7 489 130.3 511 119 533.2C107.7 555.3 103.3 577.7 101.2 588.8L99 600L0 600L0 588.8C0 577.7 0 555.3 0 533.2C0 511 0 489 0 466.8C0 444.7 0 422.3 0 400C0 377.7 0 355.3 0 333.2C0 311 0 289 0 266.8C0 244.7 0 222.3 0 200C0 177.7 0 155.3 0 133.2C0 111 0 89 0 66.8C0 44.7 0 22.3 0 11.2L0 0Z" fill="#52616B" stroke-linecap="round" stroke-linejoin="miter"></path></svg>