<svg id="visual" viewBox="0 0 900 600" width="900" height="600" xmlns="http://www.w3.org/2000/svg" xmlns:xlink="http://www.w3.org/1999/xlink" version="1.1"><path d="M792 600L786.7 585.7C781.3 571.3 770.7 542.7 754.7 514.2C738.7 485.7 717.3 457.3 729.7 428.8C742 400.3 788 371.7 792 343C796 314.3 758 285.7 757.2 257C756.3 228.3 792.7 199.7 805.7 171.2C818.7 142.7 808.3 114.3 786 85.8C763.7 57.3 729.3 28.7 712.2 14.3L695 0L900 0L900 14.3C900 28.7 900 57.3 900 85.8C900 114.3 900 142.7 900 171.2C900 199.7 900 228.3 900 257C900 285.7 900 314.3 900 343C900 371.7 900 400.3 900 428.8C900 457.3 900 485.7 900 514.2C900 542.7 900 571.3 900 585.7L900 600Z" fill="#002233" stroke-linecap="round" stroke-linejoin="miter"></path></svg>